<svg xmlns="http://www.w3.org/2000/svg" viewBox="0 0 129.98 29.06">
  <path d="M2.69 9.71c.35-.39.73-.75 1.12-1.07a7.27 7.27 0 0 1 2.66-1.35c.5-.13 1.04-.19 1.62-.19.89 0 1.66.15 2.34.45.68.29 1.25.7 1.7 1.25.46.53.81 1.18 1.04 1.94.23.76.35 1.59.35 2.51v10.32h-2.86V13.25c0-1.23-.28-2.18-.85-2.85-.55-.68-1.4-1.02-2.54-1.02-.84 0-1.63.2-2.37.61-.73.41-1.4.95-2.02 1.65v11.94H0V7.36h1.71c.41 0 .66.2.75.59l.22 1.76ZM24.68 7.1c1.18 0 2.25.2 3.2.59.95.39 1.76.95 2.43 1.68a7.5 7.5 0 0 1 1.54 2.64c.36 1.02.54 2.17.54 3.44s-.18 2.43-.54 3.46a6.92 6.92 0 0 1-3.97 4.3c-.95.38-2.02.58-3.2.58s-2.27-.19-3.23-.58a6.71 6.71 0 0 1-2.43-1.68 7.53 7.53 0 0 1-1.55-2.62c-.35-1.02-.53-2.18-.53-3.46s.18-2.42.53-3.44a7.53 7.53 0 0 1 1.55-2.64 6.71 6.71 0 0 1 2.43-1.68 8.53 8.53 0 0 1 3.23-.59Zm0 14.47c1.6 0 2.79-.53 3.58-1.6.79-1.08 1.18-2.58 1.18-4.5s-.39-3.43-1.18-4.51c-.79-1.08-1.98-1.62-3.58-1.62-.81 0-1.52.14-2.13.42a4 4 0 0 0-1.5 1.2 5.71 5.71 0 0 0-.9 1.94c-.19.76-.29 1.62-.29 2.58 0 1.92.39 3.42 1.18 4.5.8 1.07 2.01 1.6 3.63 1.6Zm14.18-1.91c.52.7 1.09 1.2 1.71 1.49.62.29 1.31.43 2.08.43a4.1 4.1 0 0 0 3.49-1.62c.81-1.08 1.22-2.61 1.22-4.61 0-1.06-.1-1.96-.29-2.72a5.15 5.15 0 0 0-.8-1.86 3.04 3.04 0 0 0-1.3-1.07 4.35 4.35 0 0 0-1.74-.34c-.93 0-1.74.21-2.45.64a7.22 7.22 0 0 0-1.92 1.81v7.84Zm-.14-9.79c.68-.84 1.47-1.52 2.37-2.03s1.92-.77 3.07-.77c.94 0 1.79.18 2.54.54.76.35 1.4.88 1.94 1.58a7.6 7.6 0 0 1 1.23 2.59 13.23 13.23 0 0 1-.05 6.91 8.07 8.07 0 0 1-1.39 2.67 6.47 6.47 0 0 1-5.14 2.42c-.99 0-1.85-.17-2.56-.5a6.07 6.07 0 0 1-1.87-1.41v7.17H36V7.36h1.71c.41 0 .66.2.75.59l.26 1.92Zm18.08-.35a8.55 8.55 0 0 1 2.3-1.76 6.18 6.18 0 0 1 2.91-.66c.89 0 1.66.15 2.34.45.68.29 1.25.7 1.7 1.25.46.53.81 1.18 1.04 1.94.23.76.35 1.59.35 2.51v10.32h-2.86V13.25c0-1.23-.28-2.18-.85-2.85-.55-.68-1.4-1.02-2.54-1.02-.84 0-1.63.2-2.37.61-.73.41-1.4.95-2.02 1.65v11.94h-2.86V0h2.86v9.52ZM78.61 7.1c1.18 0 2.25.2 3.2.59.95.39 1.76.95 2.43 1.68a7.5 7.5 0 0 1 1.54 2.64c.36 1.02.54 2.17.54 3.44s-.18 2.43-.54 3.46a7.13 7.13 0 0 1-1.54 2.62 6.71 6.71 0 0 1-2.43 1.68c-.95.38-2.02.58-3.2.58s-2.27-.19-3.23-.58c-.95-.39-1.76-.95-2.43-1.68s-1.19-1.6-1.55-2.62c-.35-1.02-.53-2.18-.53-3.46s.18-2.42.53-3.44a7.53 7.53 0 0 1 1.55-2.64 6.71 6.71 0 0 1 2.43-1.68 8.53 8.53 0 0 1 3.23-.59Zm0 14.47c1.6 0 2.79-.53 3.58-1.6.79-1.08 1.18-2.58 1.18-4.5s-.39-3.43-1.18-4.51c-.79-1.08-1.98-1.62-3.58-1.62-.81 0-1.52.14-2.13.42a4 4 0 0 0-1.5 1.2 5.71 5.71 0 0 0-.9 1.94c-.19.76-.29 1.62-.29 2.58 0 1.92.39 3.42 1.18 4.5.8 1.07 2.01 1.6 3.63 1.6ZM92.63 9.71c.35-.39.73-.75 1.12-1.07a7.27 7.27 0 0 1 2.66-1.35c.5-.13 1.04-.19 1.62-.19.88 0 1.66.15 2.34.45.68.29 1.25.7 1.7 1.25.46.53.81 1.18 1.04 1.94.23.76.35 1.59.35 2.51v10.32h-2.86V13.25c0-1.23-.28-2.18-.85-2.85-.56-.68-1.4-1.02-2.54-1.02-.84 0-1.63.2-2.37.61-.73.41-1.4.95-2.02 1.65v11.94h-2.86V7.36h1.71c.41 0 .66.2.75.59l.22 1.76Zm26 3.99c0-.66-.1-1.26-.29-1.81a3.7 3.7 0 0 0-.82-1.42 3.4 3.4 0 0 0-1.3-.93 4.35 4.35 0 0 0-1.74-.34 4.4 4.4 0 0 0-3.25 1.2 5.56 5.56 0 0 0-1.47 3.3h8.86Zm2.3 7.6c-.35.43-.77.8-1.26 1.12-.49.31-1.02.57-1.58.77-.55.2-1.13.35-1.73.45-.6.11-1.19.16-1.78.16a8.46 8.46 0 0 1-3.1-.56 7.1 7.1 0 0 1-2.45-1.66 7.77 7.77 0 0 1-1.6-2.72 11.11 11.11 0 0 1-.07-6.88 7.4 7.4 0 0 1 1.5-2.54 6.82 6.82 0 0 1 2.38-1.7 7.67 7.67 0 0 1 3.17-.62c.97 0 1.87.17 2.69.5a5.8 5.8 0 0 1 2.14 1.41 6.31 6.31 0 0 1 1.42 2.27c.34.9.51 1.92.51 3.07 0 .45-.05.75-.14.9-.1.15-.28.22-.54.22h-10.83c.03 1.02.17 1.91.42 2.67.26.76.61 1.39 1.06 1.9.45.5.98.88 1.6 1.14a5.5 5.5 0 0 0 2.08.37 6.22 6.22 0 0 0 3.18-.78c.37-.19.68-.37.93-.53.26-.17.47-.26.66-.26a.6.6 0 0 1 .54.27l.8 1.04Zm3.28.51c0-.28.05-.54.14-.78a1.9 1.9 0 0 1 1.06-1.07c.24-.11.51-.16.78-.16s.54.05.78.16a2.06 2.06 0 0 1 1.07 1.07 2 2 0 0 1 0 1.58c-.11.23-.25.44-.43.62s-.39.32-.64.42c-.25.11-.51.16-.78.16s-.54-.05-.78-.16c-.25-.1-.46-.23-.64-.42a2.42 2.42 0 0 1-.42-.62 2.1 2.1 0 0 1-.14-.8Z"/>
  <path d="M33.74 14.77h96.24v1.42H33.74v-1.42Z"/>
</svg>
